<?xml version="1.0" encoding="utf-8"?>
<!-- Generator: Adobe Illustrator 23.0.5, SVG Export Plug-In . SVG Version: 6.00 Build 0)  -->
<svg version="1.1" id="Layer_1" xmlns="http://www.w3.org/2000/svg" xmlns:xlink="http://www.w3.org/1999/xlink" x="0px" y="0px"
	 viewBox="0 0 476.37 207.9" style="enable-background:new 0 0 476.37 207.9;" xml:space="preserve">
<style type="text/css">
	.st0{display:none;fill:#640D0D;}
	.st1{fill:#414042;}
	.st2{fill:url(#SVGID_1_);}
	.st3{fill:url(#SVGID_2_);}
	.st4{fill:url(#SVGID_3_);}
	.st5{fill:url(#SVGID_4_);}
	.st6{fill:url(#SVGID_5_);}
	.st7{fill:url(#SVGID_6_);}
	.st8{fill:url(#SVGID_7_);}
	.st9{fill:url(#SVGID_8_);}
	.st10{fill:url(#SVGID_9_);}
	.st11{fill:url(#SVGID_10_);}
	.st12{fill:url(#SVGID_11_);}
	.st13{fill:url(#SVGID_12_);}
	.st14{fill:url(#SVGID_13_);}
	.st15{fill:url(#SVGID_14_);}
	.st16{fill:url(#SVGID_15_);}
	.st17{fill:url(#SVGID_16_);}
	.st18{fill:url(#SVGID_17_);}
	.st19{fill:url(#SVGID_18_);}
	.st20{fill:url(#SVGID_19_);}
	.st21{fill:url(#SVGID_20_);}
	.st22{fill:url(#SVGID_21_);}
	.st23{fill:url(#SVGID_22_);}
	.st24{fill:url(#SVGID_23_);}
	.st25{fill:url(#SVGID_24_);}
	.st26{fill:url(#SVGID_25_);}
	.st27{fill:url(#SVGID_26_);}
	.st28{fill:url(#SVGID_27_);}
	.st29{fill:url(#SVGID_28_);}
	.st30{fill:url(#SVGID_29_);}
	.st31{fill:url(#SVGID_30_);}
	.st32{fill:url(#SVGID_31_);}
	.st33{fill:url(#SVGID_32_);}
	.st34{fill:url(#SVGID_33_);}
	.st35{fill:url(#SVGID_34_);}
	.st36{fill:url(#SVGID_35_);}
	.st37{fill:url(#SVGID_36_);}
	.st38{fill:none;}
	.st39{fill:url(#SVGID_37_);}
	.st40{fill:url(#SVGID_38_);}
	.st41{fill:url(#SVGID_39_);}
	.st42{fill:url(#SVGID_40_);}
	.st43{fill:url(#SVGID_41_);}
	.st44{fill:url(#SVGID_42_);}
	.st45{fill:url(#SVGID_43_);}
	.st46{fill:url(#SVGID_44_);}
</style>
<rect x="-69.62" y="-316.12" class="st0" width="595.28" height="841.89"/>
<g>
	<g>
		<path class="st1" d="M94.02,206.71c-0.57-1.77-1.17-3.58-1.83-5.44c-0.65-1.86-1.3-3.72-1.95-5.56H70.39
			c-0.64,1.85-1.29,3.71-1.93,5.58c-0.65,1.86-1.25,3.67-1.8,5.43H54.77c1.91-5.48,3.73-10.54,5.45-15.19
			c1.72-4.65,3.4-9.02,5.04-13.13c1.64-4.11,3.26-8.01,4.86-11.7c1.59-3.69,3.25-7.3,4.97-10.82h10.85
			c1.67,3.52,3.32,7.13,4.94,10.82c1.62,3.69,3.26,7.59,4.9,11.7c1.65,4.11,3.33,8.49,5.05,13.13c1.72,4.65,3.54,9.71,5.46,15.19
			H94.02z M80.27,167.38c-0.26,0.74-0.63,1.74-1.12,3.01c-0.49,1.27-1.05,2.74-1.68,4.41c-0.63,1.67-1.33,3.5-2.11,5.5
			c-0.78,2-1.56,4.1-2.37,6.3h14.54c-0.78-2.2-1.53-4.31-2.26-6.32s-1.42-3.85-2.08-5.51c-0.66-1.67-1.23-3.13-1.73-4.4
			C80.97,169.1,80.57,168.1,80.27,167.38z"/>
		<path class="st1" d="M140.09,176.72c2.06-3.46,4.02-6.93,5.88-10.39c1.86-3.46,3.57-6.95,5.14-10.46h12.62
			c-2.79,5.48-5.68,10.79-8.66,15.92c-2.98,5.14-6.14,10.3-9.46,15.48v19.44h-11.45v-19.3c-3.33-5.18-6.49-10.37-9.5-15.56
			c-3.01-5.18-5.91-10.52-8.69-16h13.28c1.56,3.51,3.25,7,5.06,10.46C136.11,169.79,138.04,173.25,140.09,176.72z"/>
		<path class="st1" d="M236.52,207.37c-2.79,0-5.57-0.09-8.33-0.26c-2.76-0.17-5.64-0.57-8.62-1.21v-49.31
			c2.35-0.44,4.92-0.77,7.7-0.99c2.79-0.22,5.38-0.33,7.78-0.33c3.23,0,6.2,0.23,8.92,0.7c2.71,0.47,5.05,1.26,7.01,2.38
			c1.96,1.13,3.49,2.6,4.59,4.44c1.1,1.83,1.65,4.1,1.65,6.79c0,4.06-1.96,7.26-5.87,9.61c3.23,1.22,5.43,2.89,6.6,4.99
			c1.17,2.1,1.76,4.48,1.76,7.12c0,5.33-1.94,9.34-5.83,12.03C249.98,206.02,244.19,207.37,236.52,207.37z M230.72,175.82h5.58
			c3.52,0,6.04-0.45,7.56-1.36c1.52-0.91,2.27-2.36,2.27-4.37c0-2.05-0.78-3.5-2.35-4.33c-1.57-0.83-3.87-1.25-6.9-1.25
			c-0.98,0-2.03,0.01-3.16,0.04c-1.13,0.02-2.13,0.09-3.01,0.18V175.82z M230.72,184.55v13.13c0.83,0.1,1.74,0.17,2.71,0.22
			c0.98,0.05,2.05,0.07,3.23,0.07c3.42,0,6.19-0.49,8.29-1.47c2.1-0.98,3.16-2.79,3.16-5.43c0-2.35-0.88-4.02-2.64-5.03
			c-1.76-1-4.28-1.5-7.56-1.5H230.72z"/>
		<path class="st1" d="M333.29,181.25c0,4.35-0.65,8.18-1.94,11.48c-1.3,3.3-3.07,6.07-5.32,8.29c-2.25,2.23-4.93,3.9-8.03,5.03
			c-3.11,1.12-6.45,1.69-10.02,1.69c-3.47,0-6.75-0.56-9.83-1.69c-3.08-1.13-5.77-2.8-8.07-5.03c-2.3-2.23-4.11-4.99-5.43-8.29
			c-1.32-3.3-1.98-7.13-1.98-11.48s0.68-8.18,2.05-11.48s3.22-6.08,5.54-8.33c2.32-2.25,5.01-3.94,8.07-5.06
			c3.06-1.13,6.27-1.69,9.65-1.69c3.47,0,6.75,0.56,9.83,1.69c3.08,1.13,5.77,2.81,8.07,5.06c2.3,2.25,4.11,5.03,5.43,8.33
			C332.63,173.07,333.29,176.89,333.29,181.25z M294.48,181.25c0,2.49,0.31,4.75,0.92,6.75c0.61,2.01,1.49,3.73,2.64,5.17
			c1.15,1.44,2.56,2.56,4.22,3.34c1.66,0.78,3.57,1.17,5.72,1.17c2.1,0,4-0.39,5.69-1.17c1.69-0.78,3.11-1.89,4.26-3.34
			c1.15-1.44,2.03-3.17,2.64-5.17c0.61-2,0.92-4.26,0.92-6.75c0-2.5-0.31-4.76-0.92-6.79c-0.61-2.03-1.49-3.77-2.64-5.21
			c-1.15-1.44-2.57-2.56-4.26-3.34s-3.58-1.17-5.69-1.17c-2.15,0-4.06,0.4-5.72,1.21c-1.66,0.81-3.07,1.93-4.22,3.38
			c-1.15,1.44-2.03,3.18-2.64,5.21C294.79,176.56,294.48,178.8,294.48,181.25z"/>
		<path class="st1" d="M407.25,181.25c0,4.35-0.65,8.18-1.94,11.48c-1.3,3.3-3.07,6.07-5.32,8.29c-2.25,2.23-4.93,3.9-8.03,5.03
			c-3.11,1.12-6.45,1.69-10.02,1.69c-3.47,0-6.75-0.56-9.83-1.69c-3.08-1.13-5.77-2.8-8.07-5.03c-2.3-2.23-4.11-4.99-5.43-8.29
			c-1.32-3.3-1.98-7.13-1.98-11.48s0.68-8.18,2.05-11.48s3.22-6.08,5.54-8.33c2.32-2.25,5.01-3.94,8.07-5.06
			c3.06-1.13,6.27-1.69,9.65-1.69c3.47,0,6.75,0.56,9.83,1.69c3.08,1.13,5.77,2.81,8.07,5.06c2.3,2.25,4.11,5.03,5.43,8.33
			C406.59,173.07,407.25,176.89,407.25,181.25z M368.44,181.25c0,2.49,0.31,4.75,0.92,6.75c0.61,2.01,1.49,3.73,2.64,5.17
			c1.15,1.44,2.56,2.56,4.22,3.34c1.66,0.78,3.57,1.17,5.72,1.17c2.1,0,4-0.39,5.69-1.17c1.69-0.78,3.11-1.89,4.26-3.34
			c1.15-1.44,2.03-3.17,2.64-5.17c0.61-2,0.92-4.26,0.92-6.75c0-2.5-0.31-4.76-0.92-6.79c-0.61-2.03-1.49-3.77-2.64-5.21
			c-1.15-1.44-2.57-2.56-4.26-3.34s-3.58-1.17-5.69-1.17c-2.15,0-4.06,0.4-5.72,1.21c-1.66,0.81-3.07,1.93-4.22,3.38
			c-1.15,1.44-2.03,3.18-2.64,5.21C368.74,176.56,368.44,178.8,368.44,181.25z"/>
		<path class="st1" d="M462.76,206.71c-1.03-1.65-2.24-3.44-3.64-5.36c-1.4-1.92-2.9-3.86-4.52-5.81c-1.62-1.95-3.3-3.82-5.07-5.61
			c-1.77-1.79-3.53-3.37-5.29-4.75v21.54h-11.45v-50.85h11.45v19.11c2.94-3.09,5.93-6.32,8.97-9.7c3.04-3.37,5.84-6.51,8.41-9.41
			h13.58c-3.46,4.12-6.94,8.08-10.44,11.89c-3.5,3.8-7.19,7.63-11.05,11.48c4.07,3.39,7.99,7.42,11.77,12.08
			c3.78,4.66,7.41,9.79,10.9,15.4H462.76z"/>
	</g>
	<path class="st1" d="M7.47,184.77c0-6.32,0-12.63,0-18.95c0-1.08,0.28-2.11,1.22-2.72c0.54-0.35,1.26-0.48,1.91-0.61
		c3-0.57,6.01-1.1,9.02-1.65c2.57-0.47,5.13-0.94,7.7-1.39c0.13-0.02,0.3,0.12,0.45,0.19c-0.12,0.13-0.22,0.35-0.36,0.37
		c-3.09,0.58-6.19,1.13-9.29,1.69c-2.6,0.47-5.2,0.93-7.79,1.43c-1.71,0.33-2.28,1.07-2.28,2.86c0,12.54,0,25.08,0,37.62
		c0,0.18,0.01,0.38-0.04,0.55c-0.03,0.09-0.18,0.23-0.25,0.21c-0.11-0.02-0.24-0.14-0.28-0.25c-0.05-0.12-0.02-0.27-0.02-0.41
		C7.47,197.41,7.47,191.09,7.47,184.77z"/>
	<path class="st1" d="M5.27,183.74c0-6.27,0-12.54,0-18.81c0-0.82,0.15-1.6,0.62-2.29c0.37-0.54,0.88-0.89,1.55-1.01
		c4.39-0.79,8.77-1.6,13.16-2.4c1.31-0.24,2.61-0.49,3.92-0.7c0.17-0.03,0.36,0.12,0.54,0.18c-0.14,0.13-0.27,0.34-0.43,0.37
		c-5.07,0.94-10.14,1.86-15.21,2.78c-0.52,0.09-1.03,0.18-1.55,0.27c-1.24,0.24-1.95,1.06-2.01,2.34c-0.02,0.4-0.01,0.8-0.01,1.21
		c0,12.32,0,24.64-0.01,36.96c0,0.24,0.17,0.65-0.26,0.66c-0.49,0.01-0.29-0.44-0.29-0.68C5.27,196.34,5.27,190.04,5.27,183.74z"/>
	<path class="st1" d="M45.33,175.74c-0.46-3.5-1.45-6.82-3.2-9.89c-1.78-3.12-4.15-5.67-7.43-7.23c-1.85-0.88-3.78-1.61-5.65-2.47
		c-1.39-0.64-2.84-0.73-4.27-0.49c-4.19,0.68-8.36,1.46-12.54,2.21c-3.02,0.54-6.04,1.1-9.06,1.64c-0.8,0.14-1.46,0.52-1.79,1.25
		c-0.26,0.58-0.5,1.23-0.5,1.85c-0.04,6.29-0.02,12.57-0.02,18.86c0,6.32,0,12.63,0,18.95c0,0.86,0.54,1.45,1.33,1.46
		c0.85,0.01,1.41-0.53,1.43-1.41c0.01-0.23,0-0.46,0-0.7c0-11.98,0-23.96,0.01-35.95c0-0.47,0.11-0.95,0.27-1.4
		c0.24-0.66,0.7-1.14,1.42-1.27c3.26-0.6,6.53-1.19,9.79-1.78c2.73-0.5,5.46-1.01,8.2-1.48c0.86-0.15,1.76-0.29,2.61-0.21
		c1.5,0.14,2.79,0.97,4.14,1.57c0.56,0.25,0.54,0.75-0.01,1.05c-0.22,0.12-0.49,0.17-0.75,0.22c-1.26,0.23-2.52,0.45-3.78,0.68
		c-4.39,0.8-8.77,1.62-13.16,2.39c-1.07,0.19-1.82,0.67-2.17,1.69c-0.14,0.4-0.22,0.85-0.22,1.27c-0.01,12.23-0.01,24.46-0.01,36.69
		c0,2.29,1.72,3.79,3.96,3.41c2.13-0.36,4.25-0.77,6.38-1.16c2.61-0.47,5.22-0.98,7.84-1.41c4.26-0.7,7.87-2.61,10.81-5.74
		c3.93-4.19,5.78-9.31,6.46-14.92C45.72,180.86,45.67,178.3,45.33,175.74z M36.65,182.61c-0.37,2.41-1.25,4.61-2.96,6.43
		c-1.39,1.48-3.09,2.38-5.09,2.71c-1.23,0.2-2.46,0.44-3.7,0.66c-1,0.18-2,0.38-3.01,0.55c-1.06,0.18-1.87-0.53-1.87-1.61
		c0-5.77,0-11.53,0-17.3c0-0.2,0.04-0.41,0.1-0.6c0.16-0.47,0.51-0.7,0.99-0.79c1.74-0.33,3.48-0.59,5.22-0.94
		c0.93-0.19,1.87-0.34,2.81-0.52l2.22-0.31c0.12-0.02,0.24-0.02,0.36-0.01c0.61,0.05,1.28,0.2,1.76,0.64
		c0.68,0.62,1.24,1.36,1.71,2.19c0.84,1.47,1.3,3.06,1.52,4.74C36.86,179.6,36.83,181.47,36.65,182.61z"/>
</g>
<g>
	<g>
		<linearGradient id="SVGID_1_" gradientUnits="userSpaceOnUse" x1="201.0479" y1="-46.5105" x2="-55.9771" y2="159.6744">
			<stop  offset="0" style="stop-color:#9E1F63"/>
			<stop  offset="0.0473" style="stop-color:#9B2070"/>
			<stop  offset="0.103" style="stop-color:#97227C"/>
			<stop  offset="0.16" style="stop-color:#942485"/>
			<stop  offset="0.2185" style="stop-color:#92268C"/>
			<stop  offset="0.2809" style="stop-color:#92278F"/>
			<stop  offset="0.6685" style="stop-color:#2B3990"/>
			<stop  offset="0.8876" style="stop-color:#262262"/>
			<stop  offset="1" style="stop-color:#262262"/>
		</linearGradient>
		<path class="st2" d="M46.57,118.68c4.42,0,8.06-0.37,10.94-1.1c2.88-0.73,5.19-1.74,6.93-3.01c1.74-1.27,2.94-2.78,3.61-4.52
			c0.67-1.74,1-3.68,1-5.82c0-4.55-2.14-8.33-6.42-11.34c-4.28-3.01-11.64-6.25-22.08-9.74c-4.55-1.61-9.1-3.44-13.65-5.52
			c-4.55-2.07-8.63-4.68-12.25-7.83c-3.61-3.14-6.56-6.96-8.83-11.44c-2.28-4.48-3.41-9.94-3.41-16.36c0-6.42,1.2-12.21,3.61-17.36
			c2.41-5.15,5.82-9.54,10.24-13.15s9.77-6.39,16.06-8.33C38.61,1.21,45.7,0.24,53.6,0.24c9.37,0,17.47,1,24.29,3.01
			c6.83,2.01,12.45,4.22,16.86,6.63l-9.03,24.69c-3.88-2.01-8.2-3.78-12.95-5.32c-4.75-1.54-10.47-2.31-17.16-2.31
			c-7.5,0-12.88,1.04-16.16,3.11c-3.28,2.08-4.92,5.25-4.92,9.54c0,2.54,0.6,4.69,1.81,6.42c1.2,1.74,2.91,3.31,5.12,4.72
			c2.21,1.41,4.75,2.68,7.63,3.81c2.88,1.14,6.05,2.31,9.54,3.51c7.23,2.68,13.52,5.32,18.87,7.93c5.35,2.61,9.8,5.66,13.35,9.13
			c3.54,3.48,6.19,7.56,7.93,12.25c1.74,4.69,2.61,10.37,2.61,17.06c0,12.98-4.55,23.05-13.65,30.21
			c-9.1,7.16-22.82,10.74-41.15,10.74c-6.16,0-11.71-0.37-16.66-1.1c-4.95-0.74-9.33-1.64-13.15-2.71c-3.81-1.07-7.1-2.21-9.84-3.41
			c-2.74-1.21-5.05-2.34-6.93-3.41l8.83-24.89c4.15,2.28,9.27,4.32,15.36,6.12C30.28,117.78,37.74,118.68,46.57,118.68z"/>
		<linearGradient id="SVGID_2_" gradientUnits="userSpaceOnUse" x1="305.2845" y1="83.4282" x2="48.2594" y2="289.6131">
			<stop  offset="0" style="stop-color:#9E1F63"/>
			<stop  offset="0.0473" style="stop-color:#9B2070"/>
			<stop  offset="0.103" style="stop-color:#97227C"/>
			<stop  offset="0.16" style="stop-color:#942485"/>
			<stop  offset="0.2185" style="stop-color:#92268C"/>
			<stop  offset="0.2809" style="stop-color:#92278F"/>
			<stop  offset="0.6685" style="stop-color:#2B3990"/>
			<stop  offset="0.8876" style="stop-color:#262262"/>
			<stop  offset="1" style="stop-color:#262262"/>
		</linearGradient>
		<path class="st3" d="M366.73,115.27v27.3H272.4V1.37h31.79v113.9H366.73z"/>
		<linearGradient id="SVGID_3_" gradientUnits="userSpaceOnUse" x1="335.2809" y1="120.821" x2="78.2558" y2="327.0059">
			<stop  offset="0" style="stop-color:#9E1F63"/>
			<stop  offset="0.0473" style="stop-color:#9B2070"/>
			<stop  offset="0.103" style="stop-color:#97227C"/>
			<stop  offset="0.16" style="stop-color:#942485"/>
			<stop  offset="0.2185" style="stop-color:#92268C"/>
			<stop  offset="0.2809" style="stop-color:#92278F"/>
			<stop  offset="0.6685" style="stop-color:#2B3990"/>
			<stop  offset="0.8876" style="stop-color:#262262"/>
			<stop  offset="1" style="stop-color:#262262"/>
		</linearGradient>
		<path class="st4" d="M475.94,1.37v27.1h-42.58v114.1h-31.79V28.47h-42.58V1.37H475.94z"/>
	</g>
	<g>
		<linearGradient id="SVGID_4_" gradientUnits="userSpaceOnUse" x1="177.2964" y1="97.7727" x2="176.9807" y2="97.9806">
			<stop  offset="0" style="stop-color:#9E1F63"/>
			<stop  offset="0.0473" style="stop-color:#9B2070"/>
			<stop  offset="0.103" style="stop-color:#97227C"/>
			<stop  offset="0.16" style="stop-color:#942485"/>
			<stop  offset="0.2185" style="stop-color:#92268C"/>
			<stop  offset="0.2809" style="stop-color:#92278F"/>
			<stop  offset="0.6685" style="stop-color:#2B3990"/>
			<stop  offset="0.8876" style="stop-color:#262262"/>
			<stop  offset="1" style="stop-color:#262262"/>
		</linearGradient>
		<polygon class="st5" points="176.77,97.63 177.2,97.63 177.2,98.32 		"/>
		<linearGradient id="SVGID_5_" gradientUnits="userSpaceOnUse" x1="174.3325" y1="103.3856" x2="173.2026" y2="104.1298">
			<stop  offset="0" style="stop-color:#9E1F63"/>
			<stop  offset="0.0473" style="stop-color:#9B2070"/>
			<stop  offset="0.103" style="stop-color:#97227C"/>
			<stop  offset="0.16" style="stop-color:#942485"/>
			<stop  offset="0.2185" style="stop-color:#92268C"/>
			<stop  offset="0.2809" style="stop-color:#92278F"/>
			<stop  offset="0.6685" style="stop-color:#2B3990"/>
			<stop  offset="0.8876" style="stop-color:#262262"/>
			<stop  offset="1" style="stop-color:#262262"/>
		</linearGradient>
		<polygon class="st6" points="173.32,103.15 174.49,103.62 174.13,104.42 173.49,104.56 173.52,103.98 		"/>
		<linearGradient id="SVGID_6_" gradientUnits="userSpaceOnUse" x1="228.5404" y1="141.2487" x2="228.2321" y2="141.4518">
			<stop  offset="0" style="stop-color:#9E1F63"/>
			<stop  offset="0.0473" style="stop-color:#9B2070"/>
			<stop  offset="0.103" style="stop-color:#97227C"/>
			<stop  offset="0.16" style="stop-color:#942485"/>
			<stop  offset="0.2185" style="stop-color:#92268C"/>
			<stop  offset="0.2809" style="stop-color:#92278F"/>
			<stop  offset="0.6685" style="stop-color:#2B3990"/>
			<stop  offset="0.8876" style="stop-color:#262262"/>
			<stop  offset="1" style="stop-color:#262262"/>
		</linearGradient>
		<path class="st7" d="M228.28,141.53v-0.21c0,0,0.22,0.01,0.26,0c0.04-0.01,0.04-0.01,0.04-0.01L228.28,141.53z"/>
		<linearGradient id="SVGID_7_" gradientUnits="userSpaceOnUse" x1="222.6948" y1="140.8759" x2="222.3178" y2="141.1242">
			<stop  offset="0" style="stop-color:#9E1F63"/>
			<stop  offset="0.0473" style="stop-color:#9B2070"/>
			<stop  offset="0.103" style="stop-color:#97227C"/>
			<stop  offset="0.16" style="stop-color:#942485"/>
			<stop  offset="0.2185" style="stop-color:#92268C"/>
			<stop  offset="0.2809" style="stop-color:#92278F"/>
			<stop  offset="0.6685" style="stop-color:#2B3990"/>
			<stop  offset="0.8876" style="stop-color:#262262"/>
			<stop  offset="1" style="stop-color:#262262"/>
		</linearGradient>
		<polygon class="st8" points="222.44,141.3 222.44,140.79 222.81,141.05 		"/>
		<linearGradient id="SVGID_8_" gradientUnits="userSpaceOnUse" x1="233.9061" y1="141.1764" x2="233.4858" y2="141.4533">
			<stop  offset="0" style="stop-color:#9E1F63"/>
			<stop  offset="0.0473" style="stop-color:#9B2070"/>
			<stop  offset="0.103" style="stop-color:#97227C"/>
			<stop  offset="0.16" style="stop-color:#942485"/>
			<stop  offset="0.2185" style="stop-color:#92268C"/>
			<stop  offset="0.2809" style="stop-color:#92278F"/>
			<stop  offset="0.6685" style="stop-color:#2B3990"/>
			<stop  offset="0.8876" style="stop-color:#262262"/>
			<stop  offset="1" style="stop-color:#262262"/>
		</linearGradient>
		<path class="st9" d="M233.53,141.53c0,0,0.15-0.13,0.15-0.21c0-0.08-0.33-0.19,0-0.08c0.33,0.11,0.33,0.11,0.33,0.11
			L233.53,141.53z"/>
		<linearGradient id="SVGID_9_" gradientUnits="userSpaceOnUse" x1="201.8672" y1="140.6143" x2="201.0773" y2="141.1346">
			<stop  offset="0" style="stop-color:#9E1F63"/>
			<stop  offset="0.0473" style="stop-color:#9B2070"/>
			<stop  offset="0.103" style="stop-color:#97227C"/>
			<stop  offset="0.16" style="stop-color:#942485"/>
			<stop  offset="0.2185" style="stop-color:#92268C"/>
			<stop  offset="0.2809" style="stop-color:#92278F"/>
			<stop  offset="0.6685" style="stop-color:#2B3990"/>
			<stop  offset="0.8876" style="stop-color:#262262"/>
			<stop  offset="1" style="stop-color:#262262"/>
		</linearGradient>
		<path class="st10" d="M201.02,141.05c0,0,0.07-0.52,0.44-0.52s0.52,0.26,0.52,0.26l-0.22,0.26c0,0-0.11,0.3-0.26,0
			s-0.15-0.3-0.15-0.3L201.02,141.05z"/>
		<linearGradient id="SVGID_10_" gradientUnits="userSpaceOnUse" x1="157.7004" y1="139.8627" x2="157.1858" y2="140.2016">
			<stop  offset="0" style="stop-color:#9E1F63"/>
			<stop  offset="0.0473" style="stop-color:#9B2070"/>
			<stop  offset="0.103" style="stop-color:#97227C"/>
			<stop  offset="0.16" style="stop-color:#942485"/>
			<stop  offset="0.2185" style="stop-color:#92268C"/>
			<stop  offset="0.2809" style="stop-color:#92278F"/>
			<stop  offset="0.6685" style="stop-color:#2B3990"/>
			<stop  offset="0.8876" style="stop-color:#262262"/>
			<stop  offset="1" style="stop-color:#262262"/>
		</linearGradient>
		<polygon class="st11" points="157.18,140.2 157.55,139.96 157.7,139.87 		"/>
		<linearGradient id="SVGID_11_" gradientUnits="userSpaceOnUse" x1="170.1887" y1="140.0276" x2="169.5575" y2="140.4434">
			<stop  offset="0" style="stop-color:#9E1F63"/>
			<stop  offset="0.0473" style="stop-color:#9B2070"/>
			<stop  offset="0.103" style="stop-color:#97227C"/>
			<stop  offset="0.16" style="stop-color:#942485"/>
			<stop  offset="0.2185" style="stop-color:#92268C"/>
			<stop  offset="0.2809" style="stop-color:#92278F"/>
			<stop  offset="0.6685" style="stop-color:#2B3990"/>
			<stop  offset="0.8876" style="stop-color:#262262"/>
			<stop  offset="1" style="stop-color:#262262"/>
		</linearGradient>
		<polygon class="st12" points="169.91,140.03 169.91,139.6 170.35,140.53 169.61,140.53 		"/>
		<linearGradient id="SVGID_12_" gradientUnits="userSpaceOnUse" x1="187.9671" y1="138.6179" x2="186.8948" y2="139.3241">
			<stop  offset="0" style="stop-color:#9E1F63"/>
			<stop  offset="0.0473" style="stop-color:#9B2070"/>
			<stop  offset="0.103" style="stop-color:#97227C"/>
			<stop  offset="0.16" style="stop-color:#942485"/>
			<stop  offset="0.2185" style="stop-color:#92268C"/>
			<stop  offset="0.2809" style="stop-color:#92278F"/>
			<stop  offset="0.6685" style="stop-color:#2B3990"/>
			<stop  offset="0.8876" style="stop-color:#262262"/>
			<stop  offset="1" style="stop-color:#262262"/>
		</linearGradient>
		<polygon class="st13" points="187.74,138.27 187.08,139.6 187.41,139.6 187.08,138.59 		"/>
		<linearGradient id="SVGID_13_" gradientUnits="userSpaceOnUse" x1="144.2053" y1="140.8988" x2="143.8854" y2="141.1096">
			<stop  offset="0" style="stop-color:#9E1F63"/>
			<stop  offset="0.0473" style="stop-color:#9B2070"/>
			<stop  offset="0.103" style="stop-color:#97227C"/>
			<stop  offset="0.16" style="stop-color:#942485"/>
			<stop  offset="0.2185" style="stop-color:#92268C"/>
			<stop  offset="0.2809" style="stop-color:#92278F"/>
			<stop  offset="0.6685" style="stop-color:#2B3990"/>
			<stop  offset="0.8876" style="stop-color:#262262"/>
			<stop  offset="1" style="stop-color:#262262"/>
		</linearGradient>
		<polygon class="st14" points="144.4,141.3 143.95,141.2 143.95,140.53 144.17,140.85 		"/>
		<linearGradient id="SVGID_14_" gradientUnits="userSpaceOnUse" x1="138.6492" y1="141.1477" x2="137.9956" y2="141.5782">
			<stop  offset="0" style="stop-color:#9E1F63"/>
			<stop  offset="0.0473" style="stop-color:#9B2070"/>
			<stop  offset="0.103" style="stop-color:#97227C"/>
			<stop  offset="0.16" style="stop-color:#942485"/>
			<stop  offset="0.2185" style="stop-color:#92268C"/>
			<stop  offset="0.2809" style="stop-color:#92278F"/>
			<stop  offset="0.6685" style="stop-color:#2B3990"/>
			<stop  offset="0.8876" style="stop-color:#262262"/>
			<stop  offset="1" style="stop-color:#262262"/>
		</linearGradient>
		<polygon class="st15" points="137.82,141.3 138.24,141.24 138.67,141.18 138.67,141.53 		"/>
		<linearGradient id="SVGID_15_" gradientUnits="userSpaceOnUse" x1="161.3819" y1="140.8235" x2="160.7382" y2="141.2475">
			<stop  offset="0" style="stop-color:#9E1F63"/>
			<stop  offset="0.0473" style="stop-color:#9B2070"/>
			<stop  offset="0.103" style="stop-color:#97227C"/>
			<stop  offset="0.16" style="stop-color:#942485"/>
			<stop  offset="0.2185" style="stop-color:#92268C"/>
			<stop  offset="0.2809" style="stop-color:#92278F"/>
			<stop  offset="0.6685" style="stop-color:#2B3990"/>
			<stop  offset="0.8876" style="stop-color:#262262"/>
			<stop  offset="1" style="stop-color:#262262"/>
		</linearGradient>
		<polygon class="st16" points="160.81,141.36 160.81,141.05 161.4,140.85 		"/>
		<linearGradient id="SVGID_16_" gradientUnits="userSpaceOnUse" x1="134.3034" y1="141.2382" x2="133.7454" y2="141.6058">
			<stop  offset="0" style="stop-color:#9E1F63"/>
			<stop  offset="0.0473" style="stop-color:#9B2070"/>
			<stop  offset="0.103" style="stop-color:#97227C"/>
			<stop  offset="0.16" style="stop-color:#942485"/>
			<stop  offset="0.2185" style="stop-color:#92268C"/>
			<stop  offset="0.2809" style="stop-color:#92278F"/>
			<stop  offset="0.6685" style="stop-color:#2B3990"/>
			<stop  offset="0.8876" style="stop-color:#262262"/>
			<stop  offset="1" style="stop-color:#262262"/>
		</linearGradient>
		<polygon class="st17" points="133.89,141.82 133.89,141.2 134.35,141.3 		"/>
		<linearGradient id="SVGID_17_" gradientUnits="userSpaceOnUse" x1="229.488" y1="141.0107" x2="229.0041" y2="141.3294">
			<stop  offset="0" style="stop-color:#9E1F63"/>
			<stop  offset="0.0473" style="stop-color:#9B2070"/>
			<stop  offset="0.103" style="stop-color:#97227C"/>
			<stop  offset="0.16" style="stop-color:#942485"/>
			<stop  offset="0.2185" style="stop-color:#92268C"/>
			<stop  offset="0.2809" style="stop-color:#92278F"/>
			<stop  offset="0.6685" style="stop-color:#2B3990"/>
			<stop  offset="0.8876" style="stop-color:#262262"/>
			<stop  offset="1" style="stop-color:#262262"/>
		</linearGradient>
		<polygon class="st18" points="229.02,141.36 229.02,141.05 229.61,141.2 		"/>
		<linearGradient id="SVGID_18_" gradientUnits="userSpaceOnUse" x1="238.2921" y1="140.9144" x2="237.8671" y2="141.1944">
			<stop  offset="0" style="stop-color:#9E1F63"/>
			<stop  offset="0.0473" style="stop-color:#9B2070"/>
			<stop  offset="0.103" style="stop-color:#97227C"/>
			<stop  offset="0.16" style="stop-color:#942485"/>
			<stop  offset="0.2185" style="stop-color:#92268C"/>
			<stop  offset="0.2809" style="stop-color:#92278F"/>
			<stop  offset="0.6685" style="stop-color:#2B3990"/>
			<stop  offset="0.8876" style="stop-color:#262262"/>
			<stop  offset="1" style="stop-color:#262262"/>
		</linearGradient>
		<polygon class="st19" points="237.97,141.36 237.97,140.85 238.42,141.1 		"/>
		<linearGradient id="SVGID_19_" gradientUnits="userSpaceOnUse" x1="196.7199" y1="127.1012" x2="196.1479" y2="127.4779">
			<stop  offset="0" style="stop-color:#9E1F63"/>
			<stop  offset="0.0473" style="stop-color:#9B2070"/>
			<stop  offset="0.103" style="stop-color:#97227C"/>
			<stop  offset="0.16" style="stop-color:#942485"/>
			<stop  offset="0.2185" style="stop-color:#92268C"/>
			<stop  offset="0.2809" style="stop-color:#92278F"/>
			<stop  offset="0.6685" style="stop-color:#2B3990"/>
			<stop  offset="0.8876" style="stop-color:#262262"/>
			<stop  offset="1" style="stop-color:#262262"/>
		</linearGradient>
		<polygon class="st20" points="195.95,127.18 196.47,126.72 196.76,127.18 196.76,127.62 		"/>
		<linearGradient id="SVGID_20_" gradientUnits="userSpaceOnUse" x1="201.1038" y1="114.7261" x2="200.1705" y2="115.3408">
			<stop  offset="0" style="stop-color:#9E1F63"/>
			<stop  offset="0.0473" style="stop-color:#9B2070"/>
			<stop  offset="0.103" style="stop-color:#97227C"/>
			<stop  offset="0.16" style="stop-color:#942485"/>
			<stop  offset="0.2185" style="stop-color:#92268C"/>
			<stop  offset="0.2809" style="stop-color:#92278F"/>
			<stop  offset="0.6685" style="stop-color:#2B3990"/>
			<stop  offset="0.8876" style="stop-color:#262262"/>
			<stop  offset="1" style="stop-color:#262262"/>
		</linearGradient>
		<polygon class="st21" points="200.17,115.34 200.41,115.13 201.02,114.6 201.02,114.97 		"/>
		<linearGradient id="SVGID_21_" gradientUnits="userSpaceOnUse" x1="161.4703" y1="125.203" x2="160.2653" y2="125.9967">
			<stop  offset="0" style="stop-color:#9E1F63"/>
			<stop  offset="0.0473" style="stop-color:#9B2070"/>
			<stop  offset="0.103" style="stop-color:#97227C"/>
			<stop  offset="0.16" style="stop-color:#942485"/>
			<stop  offset="0.2185" style="stop-color:#92268C"/>
			<stop  offset="0.2809" style="stop-color:#92278F"/>
			<stop  offset="0.6685" style="stop-color:#2B3990"/>
			<stop  offset="0.8876" style="stop-color:#262262"/>
			<stop  offset="1" style="stop-color:#262262"/>
		</linearGradient>
		<polygon class="st22" points="160.44,126.26 160.84,125.44 161.11,124.88 161.73,125.59 		"/>
		<linearGradient id="SVGID_22_" gradientUnits="userSpaceOnUse" x1="151.9367" y1="130.3504" x2="151.2435" y2="130.8069">
			<stop  offset="0" style="stop-color:#9E1F63"/>
			<stop  offset="0.0473" style="stop-color:#9B2070"/>
			<stop  offset="0.103" style="stop-color:#97227C"/>
			<stop  offset="0.16" style="stop-color:#942485"/>
			<stop  offset="0.2185" style="stop-color:#92268C"/>
			<stop  offset="0.2809" style="stop-color:#92278F"/>
			<stop  offset="0.6685" style="stop-color:#2B3990"/>
			<stop  offset="0.8876" style="stop-color:#262262"/>
			<stop  offset="1" style="stop-color:#262262"/>
		</linearGradient>
		<polygon class="st23" points="151.04,130.5 151.92,130.32 151.92,130.8 151.48,130.8 		"/>
		<linearGradient id="SVGID_23_" gradientUnits="userSpaceOnUse" x1="184.5246" y1="115.4119" x2="183.8994" y2="115.8237">
			<stop  offset="0" style="stop-color:#9E1F63"/>
			<stop  offset="0.0473" style="stop-color:#9B2070"/>
			<stop  offset="0.103" style="stop-color:#97227C"/>
			<stop  offset="0.16" style="stop-color:#942485"/>
			<stop  offset="0.2185" style="stop-color:#92268C"/>
			<stop  offset="0.2809" style="stop-color:#92278F"/>
			<stop  offset="0.6685" style="stop-color:#2B3990"/>
			<stop  offset="0.8876" style="stop-color:#262262"/>
			<stop  offset="1" style="stop-color:#262262"/>
		</linearGradient>
		<polygon class="st24" points="184.04,116.04 184.04,115.34 184.71,115.69 		"/>
		<linearGradient id="SVGID_24_" gradientUnits="userSpaceOnUse" x1="191.364" y1="88.7653" x2="190.7911" y2="89.1426">
			<stop  offset="0" style="stop-color:#9E1F63"/>
			<stop  offset="0.0473" style="stop-color:#9B2070"/>
			<stop  offset="0.103" style="stop-color:#97227C"/>
			<stop  offset="0.16" style="stop-color:#942485"/>
			<stop  offset="0.2185" style="stop-color:#92268C"/>
			<stop  offset="0.2809" style="stop-color:#92278F"/>
			<stop  offset="0.6685" style="stop-color:#2B3990"/>
			<stop  offset="0.8876" style="stop-color:#262262"/>
			<stop  offset="1" style="stop-color:#262262"/>
		</linearGradient>
		<polygon class="st25" points="190.72,89.04 191.27,88.62 191.27,89.04 		"/>
		<linearGradient id="SVGID_25_" gradientUnits="userSpaceOnUse" x1="177.1851" y1="85.7508" x2="176.3944" y2="86.2716">
			<stop  offset="0" style="stop-color:#9E1F63"/>
			<stop  offset="0.0473" style="stop-color:#9B2070"/>
			<stop  offset="0.103" style="stop-color:#97227C"/>
			<stop  offset="0.16" style="stop-color:#942485"/>
			<stop  offset="0.2185" style="stop-color:#92268C"/>
			<stop  offset="0.2809" style="stop-color:#92278F"/>
			<stop  offset="0.6685" style="stop-color:#2B3990"/>
			<stop  offset="0.8876" style="stop-color:#262262"/>
			<stop  offset="1" style="stop-color:#262262"/>
		</linearGradient>
		<polygon class="st26" points="176.33,86.17 176.99,85.45 177.2,86.17 		"/>
		<linearGradient id="SVGID_26_" gradientUnits="userSpaceOnUse" x1="185.7522" y1="75.9368" x2="185.172" y2="76.319">
			<stop  offset="0" style="stop-color:#9E1F63"/>
			<stop  offset="0.0473" style="stop-color:#9B2070"/>
			<stop  offset="0.103" style="stop-color:#97227C"/>
			<stop  offset="0.16" style="stop-color:#942485"/>
			<stop  offset="0.2185" style="stop-color:#92268C"/>
			<stop  offset="0.2809" style="stop-color:#92278F"/>
			<stop  offset="0.6685" style="stop-color:#2B3990"/>
			<stop  offset="0.8876" style="stop-color:#262262"/>
			<stop  offset="1" style="stop-color:#262262"/>
		</linearGradient>
		<path class="st27" d="M185.67,75.85h-0.59c0.3,0.65,0.3,0.65,0.3,0.65s-0.22,0.15,0.3,0C186.19,76.35,185.67,75.85,185.67,75.85z"
			/>
		<linearGradient id="SVGID_27_" gradientUnits="userSpaceOnUse" x1="184.0334" y1="27.4839" x2="183.5036" y2="27.8328">
			<stop  offset="0" style="stop-color:#9E1F63"/>
			<stop  offset="0.0473" style="stop-color:#9B2070"/>
			<stop  offset="0.103" style="stop-color:#97227C"/>
			<stop  offset="0.16" style="stop-color:#942485"/>
			<stop  offset="0.2185" style="stop-color:#92268C"/>
			<stop  offset="0.2809" style="stop-color:#92278F"/>
			<stop  offset="0.6685" style="stop-color:#2B3990"/>
			<stop  offset="0.8876" style="stop-color:#262262"/>
			<stop  offset="1" style="stop-color:#262262"/>
		</linearGradient>
		<polygon class="st28" points="183.59,27.96 183.56,27.69 183.95,27.35 		"/>
		<linearGradient id="SVGID_28_" gradientUnits="userSpaceOnUse" x1="171.1589" y1="133.5859" x2="169.436" y2="134.7206">
			<stop  offset="0" style="stop-color:#9E1F63"/>
			<stop  offset="0.0473" style="stop-color:#9B2070"/>
			<stop  offset="0.103" style="stop-color:#97227C"/>
			<stop  offset="0.16" style="stop-color:#942485"/>
			<stop  offset="0.2185" style="stop-color:#92268C"/>
			<stop  offset="0.2809" style="stop-color:#92278F"/>
			<stop  offset="0.6685" style="stop-color:#2B3990"/>
			<stop  offset="0.8876" style="stop-color:#262262"/>
			<stop  offset="1" style="stop-color:#262262"/>
		</linearGradient>
		<polygon class="st29" points="169.61,134.99 169.61,134.15 170.98,133.32 170.98,134.15 		"/>
		<linearGradient id="SVGID_29_" gradientUnits="userSpaceOnUse" x1="203.8983" y1="136.2777" x2="203.003" y2="136.8674">
			<stop  offset="0" style="stop-color:#9E1F63"/>
			<stop  offset="0.0473" style="stop-color:#9B2070"/>
			<stop  offset="0.103" style="stop-color:#97227C"/>
			<stop  offset="0.16" style="stop-color:#942485"/>
			<stop  offset="0.2185" style="stop-color:#92268C"/>
			<stop  offset="0.2809" style="stop-color:#92278F"/>
			<stop  offset="0.6685" style="stop-color:#2B3990"/>
			<stop  offset="0.8876" style="stop-color:#262262"/>
			<stop  offset="1" style="stop-color:#262262"/>
		</linearGradient>
		<polygon class="st30" points="204.16,136.67 203.22,137.19 203.22,136.16 		"/>
		<linearGradient id="SVGID_30_" gradientUnits="userSpaceOnUse" x1="211.3248" y1="139.0707" x2="210.0509" y2="139.9097">
			<stop  offset="0" style="stop-color:#9E1F63"/>
			<stop  offset="0.0473" style="stop-color:#9B2070"/>
			<stop  offset="0.103" style="stop-color:#97227C"/>
			<stop  offset="0.16" style="stop-color:#942485"/>
			<stop  offset="0.2185" style="stop-color:#92268C"/>
			<stop  offset="0.2809" style="stop-color:#92278F"/>
			<stop  offset="0.6685" style="stop-color:#2B3990"/>
			<stop  offset="0.8876" style="stop-color:#262262"/>
			<stop  offset="1" style="stop-color:#262262"/>
		</linearGradient>
		<polygon class="st31" points="210.63,140.79 210.63,138.27 211.85,139.87 209.92,139.53 		"/>
		<linearGradient id="SVGID_31_" gradientUnits="userSpaceOnUse" x1="152.8796" y1="140.5477" x2="152.1273" y2="141.0431">
			<stop  offset="0" style="stop-color:#9E1F63"/>
			<stop  offset="0.0473" style="stop-color:#9B2070"/>
			<stop  offset="0.103" style="stop-color:#97227C"/>
			<stop  offset="0.16" style="stop-color:#942485"/>
			<stop  offset="0.2185" style="stop-color:#92268C"/>
			<stop  offset="0.2809" style="stop-color:#92278F"/>
			<stop  offset="0.6685" style="stop-color:#2B3990"/>
			<stop  offset="0.8876" style="stop-color:#262262"/>
			<stop  offset="1" style="stop-color:#262262"/>
		</linearGradient>
		<polygon class="st32" points="152.44,141.51 151.92,140.51 152.86,140.51 		"/>
		<linearGradient id="SVGID_32_" gradientUnits="userSpaceOnUse" x1="218.5874" y1="126.7602" x2="217.5215" y2="127.4622">
			<stop  offset="0" style="stop-color:#9E1F63"/>
			<stop  offset="0.0473" style="stop-color:#9B2070"/>
			<stop  offset="0.103" style="stop-color:#97227C"/>
			<stop  offset="0.16" style="stop-color:#942485"/>
			<stop  offset="0.2185" style="stop-color:#92268C"/>
			<stop  offset="0.2809" style="stop-color:#92278F"/>
			<stop  offset="0.6685" style="stop-color:#2B3990"/>
			<stop  offset="0.8876" style="stop-color:#262262"/>
			<stop  offset="1" style="stop-color:#262262"/>
		</linearGradient>
		<polygon class="st33" points="217.52,127.46 218.44,126.54 218.44,127.17 		"/>
		<linearGradient id="SVGID_33_" gradientUnits="userSpaceOnUse" x1="211.4522" y1="117.1594" x2="210.5257" y2="117.7697">
			<stop  offset="0" style="stop-color:#9E1F63"/>
			<stop  offset="0.0473" style="stop-color:#9B2070"/>
			<stop  offset="0.103" style="stop-color:#97227C"/>
			<stop  offset="0.16" style="stop-color:#942485"/>
			<stop  offset="0.2185" style="stop-color:#92268C"/>
			<stop  offset="0.2809" style="stop-color:#92278F"/>
			<stop  offset="0.6685" style="stop-color:#2B3990"/>
			<stop  offset="0.8876" style="stop-color:#262262"/>
			<stop  offset="1" style="stop-color:#262262"/>
		</linearGradient>
		<polygon class="st34" points="210.89,118.32 210.89,116.67 211.85,117.76 		"/>
		<linearGradient id="SVGID_34_" gradientUnits="userSpaceOnUse" x1="192.2564" y1="105.26" x2="191.0547" y2="106.0515">
			<stop  offset="0" style="stop-color:#9E1F63"/>
			<stop  offset="0.0473" style="stop-color:#9B2070"/>
			<stop  offset="0.103" style="stop-color:#97227C"/>
			<stop  offset="0.16" style="stop-color:#942485"/>
			<stop  offset="0.2185" style="stop-color:#92268C"/>
			<stop  offset="0.2809" style="stop-color:#92278F"/>
			<stop  offset="0.6685" style="stop-color:#2B3990"/>
			<stop  offset="0.8876" style="stop-color:#262262"/>
			<stop  offset="1" style="stop-color:#262262"/>
		</linearGradient>
		<polygon class="st35" points="191.66,106.38 190.72,105.55 192.19,105.16 		"/>
		<linearGradient id="SVGID_35_" gradientUnits="userSpaceOnUse" x1="174.0775" y1="119.1157" x2="173.1364" y2="119.7356">
			<stop  offset="0" style="stop-color:#9E1F63"/>
			<stop  offset="0.0473" style="stop-color:#9B2070"/>
			<stop  offset="0.103" style="stop-color:#97227C"/>
			<stop  offset="0.16" style="stop-color:#942485"/>
			<stop  offset="0.2185" style="stop-color:#92268C"/>
			<stop  offset="0.2809" style="stop-color:#92278F"/>
			<stop  offset="0.6685" style="stop-color:#2B3990"/>
			<stop  offset="0.8876" style="stop-color:#262262"/>
			<stop  offset="1" style="stop-color:#262262"/>
		</linearGradient>
		<polygon class="st36" points="173.32,120.02 173.44,118.99 174.33,119.5 		"/>
		<linearGradient id="SVGID_36_" gradientUnits="userSpaceOnUse" x1="163.5018" y1="107.472" x2="162.6687" y2="108.0207">
			<stop  offset="0" style="stop-color:#9E1F63"/>
			<stop  offset="0.0473" style="stop-color:#9B2070"/>
			<stop  offset="0.103" style="stop-color:#97227C"/>
			<stop  offset="0.16" style="stop-color:#942485"/>
			<stop  offset="0.2185" style="stop-color:#92268C"/>
			<stop  offset="0.2809" style="stop-color:#92278F"/>
			<stop  offset="0.6685" style="stop-color:#2B3990"/>
			<stop  offset="0.8876" style="stop-color:#262262"/>
			<stop  offset="1" style="stop-color:#262262"/>
		</linearGradient>
		<polygon class="st37" points="162.98,108.5 162.98,107.13 163.78,107.89 		"/>
		<polygon class="st38" points="151.48,121.82 152.02,121.26 152.44,122.17 		"/>
		<linearGradient id="SVGID_37_" gradientUnits="userSpaceOnUse" x1="167.9865" y1="98.7158" x2="167.4243" y2="99.0861">
			<stop  offset="0" style="stop-color:#9E1F63"/>
			<stop  offset="0.0473" style="stop-color:#9B2070"/>
			<stop  offset="0.103" style="stop-color:#97227C"/>
			<stop  offset="0.16" style="stop-color:#942485"/>
			<stop  offset="0.2185" style="stop-color:#92268C"/>
			<stop  offset="0.2809" style="stop-color:#92278F"/>
			<stop  offset="0.6685" style="stop-color:#2B3990"/>
			<stop  offset="0.8876" style="stop-color:#262262"/>
			<stop  offset="1" style="stop-color:#262262"/>
		</linearGradient>
		<polygon class="st39" points="167.69,99.5 167.69,98.32 168.11,98.91 		"/>
		<linearGradient id="SVGID_38_" gradientUnits="userSpaceOnUse" x1="206.3351" y1="102.7589" x2="205.8556" y2="103.0747">
			<stop  offset="0" style="stop-color:#9E1F63"/>
			<stop  offset="0.0473" style="stop-color:#9B2070"/>
			<stop  offset="0.103" style="stop-color:#97227C"/>
			<stop  offset="0.16" style="stop-color:#942485"/>
			<stop  offset="0.2185" style="stop-color:#92268C"/>
			<stop  offset="0.2809" style="stop-color:#92278F"/>
			<stop  offset="0.6685" style="stop-color:#2B3990"/>
			<stop  offset="0.8876" style="stop-color:#262262"/>
			<stop  offset="1" style="stop-color:#262262"/>
		</linearGradient>
		<polygon class="st40" points="205.53,102.58 206.22,102.58 206.22,103.54 		"/>
		<linearGradient id="SVGID_39_" gradientUnits="userSpaceOnUse" x1="174.8877" y1="140.9835" x2="174.4373" y2="141.2802">
			<stop  offset="0" style="stop-color:#9E1F63"/>
			<stop  offset="0.0473" style="stop-color:#9B2070"/>
			<stop  offset="0.103" style="stop-color:#97227C"/>
			<stop  offset="0.16" style="stop-color:#942485"/>
			<stop  offset="0.2185" style="stop-color:#92268C"/>
			<stop  offset="0.2809" style="stop-color:#92278F"/>
			<stop  offset="0.6685" style="stop-color:#2B3990"/>
			<stop  offset="0.8876" style="stop-color:#262262"/>
			<stop  offset="1" style="stop-color:#262262"/>
		</linearGradient>
		<polygon class="st41" points="174.49,141.36 174.49,140.79 175.1,141.3 		"/>
		<linearGradient id="SVGID_40_" gradientUnits="userSpaceOnUse" x1="141.6321" y1="140.5188" x2="140.8763" y2="141.0167">
			<stop  offset="0" style="stop-color:#9E1F63"/>
			<stop  offset="0.0473" style="stop-color:#9B2070"/>
			<stop  offset="0.103" style="stop-color:#97227C"/>
			<stop  offset="0.16" style="stop-color:#942485"/>
			<stop  offset="0.2185" style="stop-color:#92268C"/>
			<stop  offset="0.2809" style="stop-color:#92278F"/>
			<stop  offset="0.6685" style="stop-color:#2B3990"/>
			<stop  offset="0.8876" style="stop-color:#262262"/>
			<stop  offset="1" style="stop-color:#262262"/>
		</linearGradient>
		<path class="st42" d="M141.1,141.36c0,0-0.24-1.28,0-1.16c0.24,0.12,0.86,0.81,0.86,0.81L141.1,141.36z"/>
		<linearGradient id="SVGID_41_" gradientUnits="userSpaceOnUse" x1="241.5315" y1="141.2061" x2="241.1109" y2="141.4831">
			<stop  offset="0" style="stop-color:#9E1F63"/>
			<stop  offset="0.0473" style="stop-color:#9B2070"/>
			<stop  offset="0.103" style="stop-color:#97227C"/>
			<stop  offset="0.16" style="stop-color:#942485"/>
			<stop  offset="0.2185" style="stop-color:#92268C"/>
			<stop  offset="0.2809" style="stop-color:#92278F"/>
			<stop  offset="0.6685" style="stop-color:#2B3990"/>
			<stop  offset="0.8876" style="stop-color:#262262"/>
			<stop  offset="1" style="stop-color:#262262"/>
		</linearGradient>
		<path class="st43" d="M241.33,141.82c0,0-0.24-1.13,0-0.9C241.57,141.14,241.33,141.82,241.33,141.82z"/>
		<linearGradient id="SVGID_42_" gradientUnits="userSpaceOnUse" x1="231.2432" y1="139.2905" x2="229.9078" y2="140.17">
			<stop  offset="0" style="stop-color:#9E1F63"/>
			<stop  offset="0.0473" style="stop-color:#9B2070"/>
			<stop  offset="0.103" style="stop-color:#97227C"/>
			<stop  offset="0.16" style="stop-color:#942485"/>
			<stop  offset="0.2185" style="stop-color:#92268C"/>
			<stop  offset="0.2809" style="stop-color:#92278F"/>
			<stop  offset="0.6685" style="stop-color:#2B3990"/>
			<stop  offset="0.8876" style="stop-color:#262262"/>
			<stop  offset="1" style="stop-color:#262262"/>
		</linearGradient>
		<polygon class="st44" points="229.82,140.03 230.98,138.89 230.98,140.03 		"/>
		<linearGradient id="SVGID_43_" gradientUnits="userSpaceOnUse" x1="227.5383" y1="131.6326" x2="226.7826" y2="132.1303">
			<stop  offset="0" style="stop-color:#9E1F63"/>
			<stop  offset="0.0473" style="stop-color:#9B2070"/>
			<stop  offset="0.103" style="stop-color:#97227C"/>
			<stop  offset="0.16" style="stop-color:#942485"/>
			<stop  offset="0.2185" style="stop-color:#92268C"/>
			<stop  offset="0.2809" style="stop-color:#92278F"/>
			<stop  offset="0.6685" style="stop-color:#2B3990"/>
			<stop  offset="0.8876" style="stop-color:#262262"/>
			<stop  offset="1" style="stop-color:#262262"/>
		</linearGradient>
		<polygon class="st45" points="226.86,132.25 226.86,131.5 227.81,132.04 		"/>
		<linearGradient id="SVGID_44_" gradientUnits="userSpaceOnUse" x1="248.5234" y1="57.5382" x2="14.1704" y2="211.8911">
			<stop  offset="0" style="stop-color:#9E1F63"/>
			<stop  offset="0.0473" style="stop-color:#9B2070"/>
			<stop  offset="0.103" style="stop-color:#97227C"/>
			<stop  offset="0.16" style="stop-color:#942485"/>
			<stop  offset="0.2185" style="stop-color:#92268C"/>
			<stop  offset="0.2809" style="stop-color:#92278F"/>
			<stop  offset="0.6685" style="stop-color:#2B3990"/>
			<stop  offset="0.8876" style="stop-color:#262262"/>
			<stop  offset="1" style="stop-color:#262262"/>
		</linearGradient>
		<path class="st46" d="M132.7,142.52c0,0,0.07-0.11,0.17-0.27l0-0.01h0c0.33-0.51,1.06-1.53,1.57-1.68c0.68-0.19,0,0.19,1.09-1.16
			s-0.27,0.19,1.09-1.36c1.36-1.55,0.68-1.94,2.04-2.13c1.36-0.19,3.13-2.9,3.82-3.49s0.27-0.58,0.95-1.55
			c0.68-0.97-0.41-0.39,0.68-0.97c1.09-0.58,0.41,1.74,1.09-0.58c0.68-2.32,1.5-1.55,2.45-3.29c0.95-1.74,1.64-4.84,2.45-5.42
			c0.82-0.58-0.55-0.19,1.64-1.55c2.18-1.36,1.77,0,2.45-3.1c0.68-3.1,0.41-3.1,1.23-3.49c0.82-0.39,0.68-0.58,1.23-1.16
			c0.55-0.58-0.14-2.13,0.82-3.1c0.46-0.46,0.88-0.79,1.32-1.08c0.48-0.31,0.97-0.56,1.54-0.86c1.09-0.58,0-2.32,2.59-3.29
			c2.59-0.97,3.27-3.1,3.68-3.49c0.41-0.39,0.55-1.55,0.82-2.52c0.27-0.97,0-2.52,0.55-3.49c0.55-0.97,0.27-2.13,0.95-3.29
			c0.68-1.16,0.95-1.16,1.5-2.9c0.55-1.74-0.82,0.39,0.55-1.74c1.36-2.13,1.64-3.49,1.64-3.49s1.77-1.55,2.45-2.9
			c0.68-1.36,0.27-0.19,0.68-1.36s2.86-4.65,3.13-5.81c0.27-1.16-0.14-1.36,0.68-1.94c0.82-0.58,0.68-0.77,1.23-1.74
			s1.56-1.16,1.12-1.94s0.11-2.52,0.11-2.52s-1.09-0.58,0-1.16s2.04-0.97,2.18-1.94c0.03-0.25,0.16-0.47,0.33-0.65
			c0.11-0.57,0.17-0.91,0.18-0.95c0.27-0.77,1.77-0.19,1.91,0.77c0.14,0.97,1.09,1.36,2.18,1.94s0,1.16,0,1.16s0.23,0.76,0.27,1.5
			c0.85,0.48,0.86,0.49,0.86,0.49s0.27,2.13,1.09,2.52c0.82,0.39,1.64,0.77,1.64,0.77s0.55,3.1,0.82,3.87s1.23,2.52,1.09,3.29
			c-0.03,0.15-0.01,0.33,0.02,0.52c0.22,0.39,0.4,0.74,0.48,0.98c0.41,1.16,0,0,0.68,1.36c0.68,1.36,2.45,2.9,2.45,2.9
			s0.27,1.36,1.64,3.49c1.36,2.13,0,0,0.55,1.74c0.55,1.74,0.82,1.74,1.5,2.9s0.41,2.32,0.95,3.29c0.26,0.46,0.33,1.06,0.37,1.66
			c0.06,0.05,0.14,0.24,0.35,0.71c0.68,1.55,1.36,2.13,1.5,4.45c0.01,0.17,0.06,0.4,0.15,0.67c0.55,0.71,1.37,1.5,2.68,1.99
			c2.59,0.97,1.5,2.71,2.59,3.29c0.57,0.3,1.06,0.55,1.54,0.86c0.44,0.28,0.86,0.61,1.32,1.08c0.95,0.97,0.27,2.52,0.82,3.1
			s0.41,0.77,1.23,1.16c0.82,0.39,0.55,0.39,1.23,3.49c0.68,3.1,0.27,1.74,2.45,3.1c2.18,1.36,0.82,0.97,1.64,1.55
			c0.68,0.48,1.27,2.72,2,4.46c0.05,0.03,0.08,0.04,0.08,0.04s0.68,1.55,1.64,1.94c0.95,0.39,1.64,0.77,2.04,0.97
			s0.68,2.13,1.91,3.1c1.23,0.97,0.55,0.19,2.45,1.55s1.09-0.58,1.91,1.36c0.82,1.94-1.09,0.39,0.82,1.94s3.13,1.94,3.13,1.94
			c2.32,1.36,3,1.94,3,1.94s0.27,0.97,1.36,1.16c1.09,0.19,1.09,0.19,1.09,0.19l1.23,1.16l1.5,0.39l1.91,0.58l0.08,0.07h21.61
			L186.2,0.44l-82.24,142.13h28.72L132.7,142.52z M250.52,142.02l0.28-0.4h0.42h0.48c0.22,0.33,0.22,0.33,0.22,0.33l-1.4,0.46
			V142.02z M248.23,137.28c0.37,0.19,0.62,0.3,0.79,0.38c0.27-0.31,0.27,0.12,0.27,0.12s-0.08-0.03-0.27-0.12c0,0-0.01,0-0.01,0.01
			C248.74,138,247.45,136.89,248.23,137.28z M244.99,138.89v0.45l-0.28-0.45H244.99z M242.14,132.25c0.56,0.73,0.73,1.01,0.73,1.01
			h-0.28l-0.67-0.39C241.92,132.87,241.58,131.53,242.14,132.25z M239.46,137.49l0.39,0.37l-0.39,0.37V137.49z M234.88,132.26
			c0.28,0.06,0.67,0.61,0.67,0.61h-0.67C234.88,132.87,234.6,132.2,234.88,132.26z M229.06,127.46v-0.92l0.75,0.46L229.06,127.46z
			 M229.06,119.51c0.59,0.17,0.75,0.5,0.75,0.5h-0.75C229.06,120.02,228.48,119.35,229.06,119.51z M222.02,118.32h0.56l0.22,0.33
			l-0.22,0.33h-0.56V118.32z M217.21,105.04l0.89-0.28l0.34,0.78h-0.39h-1.45L217.21,105.04z M212.52,85.86v0.5l0.16,0.29l0.51-0.13
			l-0.39,0.33l-0.12-0.21l-0.83,0.21L212.52,85.86z M211.85,103.15l0.67,0.39l-0.67,0.39V103.15z M207.04,95.4
			c0.22-0.06,0.22-0.06,0.22-0.06l0.28,0.45v0.28l-0.5-0.28C207.04,95.79,206.82,95.45,207.04,95.4z M204.75,85.64l0.78,0.22
			l-0.39,0.5L204.75,86V85.64z M199.34,77.94c0.21,0.21,0.54,0,0.54,0h0.21h0.38v0.54l-0.59,0.17l-0.75-0.36
			C199.13,78.3,199.13,77.73,199.34,77.94z M197.16,74.1l0.34-0.89l0.25,0.54l-0.4,0.42C197.35,74.18,197.27,74.14,197.16,74.1
			L197.16,74.1c0,0.01-0.54-0.09-0.58-0.17C196.55,73.87,196.92,74.01,197.16,74.1z M189.73,63.86l-0.11,0.06l-0.15-0.24l0.15-0.24
			l0.11,0.24V63.86z M193.39,68.36c-0.04-0.13,0.25,0,0.25,0l0.08,0.27l0.21,0.27h-0.54C193.39,68.91,193.43,68.49,193.39,68.36z
			 M192.93,61.67l0.17,0.38l-0.31,0.21l-0.31-0.21L192.93,61.67z M191.24,60.54l0.11-0.16h0.29l0.07,0.06v0.29l-0.48,0.08V60.54z
			 M190.97,62.48h0.26l-0.06,0.1l-0.11,0.19l0.04,0.12v0.1l-0.13-0.06l0.09-0.16L190.97,62.48z M190.58,64.47
			c0,0,0.17-0.04,0.25,0.21c0.08,0.25,0,0.54,0,0.54c-0.25-0.08-0.5-0.33-0.5-0.33L190.58,64.47z M189.73,60.5
			c0.27,0.21,0.14-0.04,0.27,0.21c0.13,0.25,0,0.46,0,0.46l-0.59-0.5C189.41,60.67,189.46,60.29,189.73,60.5z M183.58,60.64
			c-0.11,0.06-0.22-0.1-0.22-0.1V60.1l0.28,0.22l0.15,0.07C183.79,60.39,183.69,60.59,183.58,60.64z M184,58.93
			c-0.21-0.11-0.21-0.11-0.21-0.11l0.13-0.21l0.08,0.21V58.93z M184,51.57l0.13-0.36c0,0,0-0.33,0.11-0.31s-0.06-0.08,0.11,0.03
			c0.17,0.11,0.17,0.11,0.17,0.11l-0.01,0.18v0.15l-0.25,0.2H184z M184.29,40.65l-0.03-0.28h0.25c0,0,0.19-0.17,0.1,0
			s-0.09,0.17-0.09,0.17l0.51-0.43c0.13,0.28,0.13,0.28,0.13,0.28l-0.22,0.39l-0.42-0.24l-0.24,0.13l0.04,0.35l-0.24-0.23l0.21-0.12
			L184.29,40.65z M184.94,42.58c0,0,0.21,0.15,0,0.24c-0.21,0.09-0.23,0.37-0.23,0.37l-0.1-0.73L184.94,42.58z M184.63,42.06v-0.17
			c0,0,0.08-0.13,0.13,0c0.06,0.13,0.06,0.13,0.06,0.13L184.63,42.06z M185.08,45.32l-0.29-0.08c0,0,0.14-0.27,0.15-0.31
			c0-0.03,0.06-0.07,0.1-0.09c-0.01,0.02-0.01,0.05,0.04,0.11c0.09,0.13,0.09,0.13,0.09,0.13L185.08,45.32z M185.17,46.3l-0.09,0.13
			l-0.14,0.12h-0.15v-0.39l0.29-0.1L185.17,46.3z M184.98,41.51l0.34-0.11l-0.06,0.55L184.98,41.51z M184.39,46.16l0.33,0.42
			l0.02,0.14c0,0-0.05-0.14-0.15,0c-0.1,0.14-0.33,0.22-0.33,0.22v-0.36L184.39,46.16z M184.44,45.32l0.14,0.18l0.02,0.18h-0.22
			C184.36,45.61,184.44,45.32,184.44,45.32z M184.71,43.92v0.15l-0.33,0.15c0,0-0.37-0.29-0.13-0.29
			C184.5,43.92,184.71,43.92,184.71,43.92z M184.39,43.46c0,0-0.14-0.4,0-0.27c0.14,0.13,0.2,0.27,0.2,0.27H184.39z M184.38,41.9
			l-0.06,0.16c0,0-0.29-0.13-0.15-0.22s0.14-0.09,0.14-0.09S184.44,41.74,184.38,41.9z M184.61,47.16l-0.23,0.61l-0.2-0.5
			L184.61,47.16z M184.59,48.14c0.24-0.17,0.73-0.56,0.73-0.56l0.08,0.36l0,0.22l-0.08,0.14h-0.24l-0.14,0.22l-0.35-0.22
			C184.59,48.3,184.35,48.3,184.59,48.14z M185.2,50.56l0.2-0.2c0,0,0.18-0.17,0.2,0c0.01,0.17,0,0.39,0,0.39l-0.27,0.12
			L185.2,50.56z M185.26,51.78l-0.09,0.08l-0.19-0.19v-0.21c0,0,0.13-0.17,0.21,0C185.28,51.63,185.26,51.78,185.26,51.78z
			 M185.08,49.31v-0.17c0,0,0.17-0.02,0.26,0s0.11,0.49,0.11,0.49L185.08,49.31z M184.59,48.85c0.06,0.13,0.12,0.28,0.12,0.28h-0.21
			C184.51,49.14,184.53,48.73,184.59,48.85z M184.59,49.78c0.18-0.08,0.38-0.14,0.38-0.14l0.12,0.26v0.13l-0.12,0.14h-0.38
			C184.59,50.17,184.41,49.86,184.59,49.78z M184.67,53.56c0,0,0,0,0.08,0.12c0.08,0.12,0,0.17-0.08,0.23
			c-0.08,0.06-0.19-0.06-0.27-0.36C184.31,53.27,184.67,53.56,184.67,53.56z M184.73,52.57c-0.02-0.08-0.06-0.25,0.06-0.25
			s0.29,0.11,0.29,0.11l0.12,0.17l-0.3,0.28h-0.1C184.79,52.88,184.76,52.65,184.73,52.57z M185.44,53.77
			c0.05-0.1,0.06,0.42,0.06,0.42l0.09,0.42l-0.09,0.08l-0.18-0.08l-0.24-0.38C185.08,54.23,185.4,53.87,185.44,53.77z M185.49,52.14
			c0,0,0.44-0.4,0.5-0.23s-0.17,0.23-0.17,0.23h-0.17H185.49z M185.75,48.98c0,0-0.09-0.26,0-0.32c0.09-0.06,0.33-0.25,0.33-0.25
			l0.15,0.11L185.75,48.98z M185.6,47.16l-0.28-0.22l0.27-0.39h0.15L185.6,47.16z M185.59,44.71l-0.26-0.33l-0.14-0.31l0.29-0.15
			c0.12,0.18,0.11,0.29,0.11,0.29L185.59,44.71z M185.03,39.09l0.09-0.44l0.28-0.22l0.09,0.33L185.03,39.09z M185.12,38.12V37.7
			l0.28,0.42H185.12z M185.12,35.34l-0.17,0.86l-0.34-0.36L185.12,35.34z M184.87,33.78l0.26-0.19l-0.14,0.5L184.87,33.78z
			 M184.87,36.59l0.17,0.42h-0.4l-0.04-0.14L184.87,36.59z M184.63,37.28l0.16,0.42l-0.28,0.42c-0.03-0.08-0.34-0.83-0.34-0.83
			H184.63z M184.71,38.42l0.15,0.19l-0.23,0.28l-0.11-0.28L184.71,38.42z M184.51,57.24l-0.19-0.33l0.27-0.18l0.15,0.44
			L184.51,57.24z M184.79,58.05c0,0-0.02,0.15-0.03,0.19c-0.01,0.04-0.17,0-0.17,0v-0.63l0.29,0.04L184.79,58.05z M185.08,57.24
			l-0.12-0.13v-0.29l0.08-0.24c0,0,0.02-0.03,0.08,0.24c0.06,0.27,0.06,0.27,0.06,0.27L185.08,57.24z M184.96,55.57l-0.08-0.28
			l-0.06,0.1c0.01,0.06-0.03,0.06-0.03,0.06l0.03-0.06c0-0.02-0.01-0.06-0.03-0.1c-0.08-0.18,0.03-0.41,0.03-0.41l0.26,0.21
			c0,0,0.12,0.08,0.12,0.2S184.96,55.57,184.96,55.57z M185.59,55.02c0,0-0.04,0.15,0,0.37c0.04,0.22-0.09,0.37-0.09,0.37
			c-0.01-0.02-0.03-0.07-0.06-0.14c-0.09-0.22-0.25-0.59-0.25-0.59H185.59z M185.59,58.33l-0.27-0.15l0.06-0.21
			c0,0,0.13-0.06,0.21,0c0.08,0.06,0.08,0.23,0.08,0.23L185.59,58.33z M185.75,57.24h-0.26c0,0-0.1-0.36,0-0.42s0.26-0.15,0.26-0.15
			V57.24z M186.08,57.16l0.15-0.26l0.52,0.35l-0.34,0.35L186.08,57.16z M185.75,54.12l0.34-0.36l0.06,0.18h0.08
			c0,0,0.1-0.4,0.12-0.11s0.12,0.28,0.02,0.29C186.26,54.13,185.75,54.12,185.75,54.12z M187.14,58.3v0.32h-0.4l-0.4-0.36
			c0,0,0.26,0.14,0.31-0.13s-0.04-0.6,0.13-0.52c0.17,0.08,0.36,0.52,0.36,0.52V58.3z M188.57,59.65v0.25l-0.32-0.01l-0.17-0.24
			l0.31-0.22c0,0,0.15-0.15,0.18,0C188.6,59.58,188.57,59.65,188.57,59.65z M188.07,56.58v-0.29l0.5,0.38l-0.17,0.44
			c0,0-0.28,0.11-0.34,0c-0.06-0.11-0.14-0.39-0.14-0.39L188.07,56.58z M187.79,55.57c0-0.01-0.08,0.19-0.08,0.19l-0.15-0.47
			C187.55,55.28,187.79,55.58,187.79,55.57z M187.35,56.73l-0.21,0.44l-0.08-0.44l-0.24-0.17c-0.04,0.01-0.07,0.02-0.07,0.02V56.5
			l0.07,0.05c0.15-0.05,0.5-0.15,0.54-0.15C187.4,56.4,187.35,56.73,187.35,56.73z M186.81,55.21c0.04,0.06,0.15,0.48,0.15,0.48
			l-0.31,0.06c0,0-0.34-0.19-0.29-0.25c0.04-0.06,0-0.29,0-0.29s0.13-0.36,0.19-0.4S186.77,55.15,186.81,55.21z M186.53,52.89
			l-0.31,0.18l-0.15,0.11c0,0-0.47-0.28-0.4-0.31c0.07-0.03,0.73-0.28,0.73-0.28L186.53,52.89z M186.1,51.22l-0.1-0.35
			c0,0-0.02-0.37,0.1-0.29c0.12,0.08,0.24,0.29,0.24,0.29L186.1,51.22z M186.22,25.47l-0.03,0.31l0.03,0.31l-0.69-0.61H186.22z
			 M185.96,23.24l-0.22,0.67l-0.43-0.95L185.96,23.24z M185.26,27.75l0.34,1.11l-0.57-0.56L185.26,27.75z M185.26,30.53l-0.14,0.5
			h-0.39L185.26,30.53z M184.44,33.53c0.08-0.03,0.35-0.28,0.35-0.28l-0.27,0.67C184.52,33.92,184.37,33.56,184.44,33.53z
			 M184.61,34.56l0.1,0.25h-0.32L184.61,34.56z M184.18,36.06c0.12,0,0.43,0.14,0.43,0.14l-0.35,0.14
			C184.26,36.34,184.05,36.06,184.18,36.06z M184,39.56c0.1-0.06,0.26-0.47,0.26-0.47l0.26,0.31l0.09,0.19l-0.47,0.11
			C184.14,39.7,183.9,39.62,184,39.56z M183.9,54.51l0.1,0.52c-0.1,0-0.21-0.21-0.21-0.21L183.9,54.51z M183.5,56.01
			c0.08,0,0.42,0.38,0.42,0.38s-0.06,0.1-0.21,0.13c-0.15,0.02-0.29,0.15-0.34,0C183.33,56.36,183.5,56.01,183.5,56.01z
			 M183.19,57.6c0.07-0.1,0.17-0.22,0.17-0.22l0.21-0.14l0.13,0.24l-0.34,0.06l0.21,0.2l-0.21,0.01
			C183.36,57.74,183.12,57.7,183.19,57.6z M182.66,58.4l0.25-0.07v0.15l-0.08,0.03l-0.17,0.11V58.4z M181.99,60.44h0.34l-0.05-0.19
			l0.3,0.19l-0.25,0.37C182.32,60.8,181.9,60.96,181.99,60.44z M180.88,59.9l0.24-0.14l0.12,0.33h-0.18l-0.26,0.15L180.88,59.9z
			 M180.35,67.51c0.25,0,0.45,0,0.45,0v0.24l-0.61,0.24C180.19,67.99,180.1,67.51,180.35,67.51z M179.37,61.51l0.22-0.17l0.01,0.33
			l0.21,0.29h-0.44V61.51z M178.93,65.23h0.42h0.46l-0.46,0.38h-0.42V65.23z M177.25,71.38v0.5l-0.5-0.5H177.25z M173.44,75.64
			c0,0,0.13-0.67,0.42-0.42c0.29,0.25,0.29,0.24,0.42,0.37c0.13,0.13,0,0.43,0,0.43h-0.21l-0.18-0.21l-0.45,0.21V75.64z
			 M172.14,79.07l0.38,0.42l-0.06,0.04c0.04,0.07,0.06,0.15,0.06,0.21c0,0.25-0.08,0.29-0.21,0.25c-0.13-0.04-0.54,0-0.54,0
			l0.7-0.46C172.35,79.31,172.14,79.07,172.14,79.07z M168.11,88.4v0.42l-0.21,0.42l-0.21-0.5L168.11,88.4z M164.34,96.6
			c0.34,0,0.34,0,0.34,0l0.17,0.63v0.63C164.84,97.85,164.01,96.6,164.34,96.6z M153.78,107.13h0.23c0.14-0.4,0.31-0.79,0.44-0.75
			c0.25,0.08,0.59,0.75,0.59,0.75h-1.03c-0.13,0.38-0.23,0.75-0.23,0.75V107.13z M152.44,115.92l0.42,0.75h-0.84L152.44,115.92z
			 M147.32,118.65l-0.5,1.45l-0.42-1.12L147.32,118.65z M140.61,124.45c0.84,0,1.34,0.33,1.34,0.33l-1.34,1.09
			C140.61,125.87,139.78,124.45,140.61,124.45z M139.19,128.72v0.92l-0.52-0.46l-0.52-0.46H139.19z M136.3,133.32l0.46,1l-0.5,0.67
			l-0.42-0.67L136.3,133.32z M121.02,141.3l-0.44,1.12v-1.24L121.02,141.3l0.31-0.79l0.5,1L121.02,141.3z M128.88,140.85l-0.67,0.67
			l-0.5-0.67l1.17-0.67V140.85z M131.48,135.74c0.42-0.33,1.22-0.75,1.22-0.75v0.96l-1.22,0.21
			C131.48,136.16,131.06,136.08,131.48,135.74z M131.48,140.18h0.67l-0.67,0.67V140.18z"/>
	</g>
</g>
</svg>
